<?xml version="1.0" encoding="utf-8"?>
<!-- Generator: Adobe Illustrator 25.0.0, SVG Export Plug-In . SVG Version: 6.00 Build 0)  -->
<svg version="1.1" xmlns="http://www.w3.org/2000/svg" xmlns:xlink="http://www.w3.org/1999/xlink" x="0px" y="0px" width="144px"
	 height="144px" viewBox="0 0 144 144" enable-background="new 0 0 144 144" xml:space="preserve">
<g id="Bounding_box">
	<g opacity="0.6">
		<path fill="none" d="M0,0v144h144V0H0z"/>
	</g>
</g>
<g id="GShield_Artwork">
	<path fill="#1967D2" d="M19.5,60.9c0.1,4.95,0.48,9.73,1.13,14.64c3.11,21,14.9,44.79,47.21,61.46c2.61,1.34,5.7,1.34,8.31,0
		c32.31-16.67,44.1-40.46,47.21-61.46c0.66-4.91,1.04-9.68,1.13-14.63v-29c0-4.55-2.85-8.61-7.12-10.15l-41.7-15.1
		c-2.38-0.86-4.98-0.86-7.35,0l-41.7,15.1c-4.28,1.55-7.12,5.61-7.12,10.15V60.9z"/>
	<g>
		<defs>
			<path id="SVGID_19_" d="M19.5,60.9c0.1,4.95,0.48,9.73,1.13,14.64c3.11,21,14.9,44.79,47.21,61.46c2.61,1.34,5.7,1.34,8.31,0
				c32.31-16.67,44.1-40.46,47.21-61.46c0.66-4.91,1.04-9.68,1.13-14.63v-29c0-4.55-2.85-8.61-7.12-10.15l-41.7-15.1
				c-2.38-0.86-4.98-0.86-7.35,0l-41.7,15.1c-4.28,1.55-7.12,5.61-7.12,10.15V60.9z"/>
		</defs>
		<clipPath id="SVGID_2_">
			<use xlink:href="#SVGID_19_"  overflow="visible"/>
		</clipPath>
		<rect x="6" y="4.5" clip-path="url(#SVGID_2_)" fill="#185ABC" width="66" height="135"/>
	</g>
	<g>
		<rect x="41.4" y="34.8" fill="none" width="61.2" height="61.2"/>
		<g>
			<g id="_x31_92px_18_">
				<path id="_x3C_Path_x3E__18_" fill="#E8F0FE" d="M72,71.45h17.19c-1.23,7.17-7.43,12.43-16.55,12.43
					c-10.02,0-18.14-8.47-18.14-18.49s8.12-18.49,18.14-18.49c4.51,0,8.55,1.55,11.74,4.59l0,0.01l8.73-8.73
					c-5.3-4.94-12.22-7.98-20.47-7.98c-16.9,0-30.6,13.7-30.6,30.6c0,16.9,13.7,30.6,30.6,30.6c17.67,0,29.31-12.42,29.31-29.9
					c0-2.24-0.2-4.38-0.57-6.43H72V71.45z"/>
			</g>
			<g>
				<defs>
					<path id="_x3C_Path_x3E__17_" d="M72,71.45h17.19c-1.23,7.17-7.43,12.43-16.55,12.43c-10.02,0-18.14-8.47-18.14-18.49
						s8.12-18.49,18.14-18.49c4.51,0,8.55,1.55,11.74,4.59l0,0.01l8.73-8.73c-5.3-4.94-12.22-7.98-20.47-7.98
						c-16.9,0-30.6,13.7-30.6,30.6c0,16.9,13.7,30.6,30.6,30.6c17.67,0,29.31-12.42,29.31-29.9c0-2.24-0.2-4.38-0.57-6.43H72V71.45z
						"/>
				</defs>
				<clipPath id="_x3C_Path_x3E__5_">
					<use xlink:href="#_x3C_Path_x3E__17_"  overflow="visible"/>
				</clipPath>
				<rect x="41.4" y="33.21" clip-path="url(#_x3C_Path_x3E__5_)" fill="#D2E3FC" width="30.6" height="64.39"/>
			</g>
		</g>
	</g>
</g>
</svg>
